<svg xmlns="http://www.w3.org/2000/svg" width="210" height="20" viewBox="0 0 210 20"><defs><linearGradient id="a" x1="-.001%" x2="99.999%" y1="49.989%" y2="49.989%"><stop offset="0%" stop-color="#7C4199"/><stop offset="100%" stop-color="#FFF"/></linearGradient><linearGradient id="b" x1="100%" x2="0%" y1="49.993%" y2="49.993%"><stop offset="0%" stop-color="#231F20"/><stop offset="100%" stop-color="#FFF"/></linearGradient></defs><g fill="none"><polygon fill="url(#a)" points="88.517 0 141.308 0 139.499 3.925 87.336 3.925"/><path fill="#7C4199" d="M8.02472426 7.45649743 8.05970285 3.75632484 5.99533013 7.45649743 8.02472426 7.45649743ZM7.88608185 10.2464811 4.57011163 10.2464811 3.09783102 12.7570093 0 12.7570093 7.47524243 0 11.4977801 0 11.7757009 12.7570093 7.88035808 12.7570093 7.88608185 10.2464811ZM20.1578944 5.15164314C20.9905178 5.15164314 22.0219292 5.0210565 22.3331309 3.92347575 22.453801 3.49580449 22.3528192 3.08706829 22.0301856 2.88270019 21.7520093 2.71554928 21.3537981 2.71554928 20.9924231 2.71554928L19.4541974 2.71554928 18.7644728 5.15164314 20.1578944 5.15164314ZM19.614244 12.7570093 19.1842776 7.88482162 17.9902791 7.88482162 16.6108299 12.7570093 12.7570093 12.7570093 16.3694897 0 22.6837092 0C23.7691046 0 24.921186.148868775 25.6655298.780908137 26.5070446 1.45081763 26.6740774 2.58496264 26.3215938 3.83075923 25.847805 5.50488002 24.8398925 6.50843838 23.1790915 7.19663L23.8478577 12.7570093 19.614244 12.7570093ZM30.9626493 6.43243076C30.6097967 7.62514896 30.058908 9.91986265 31.823171 9.91986265 33.5874341 9.91986265 34.3950602 7.62514896 34.7485578 6.43243076 35.106571 5.22194867 35.6393978 2.80035007 33.9306107 2.80035007 32.2218235 2.80035007 31.3213075 5.22194867 30.9626493 6.43243076ZM38.8886091 6.41466687C37.8455329 9.93762654 34.8053239 12.7570093 30.9839366 12.7570093 27.1612591 12.7570093 25.789843 9.93762654 26.8329191 6.41466687 27.929536 2.71026178 30.9187846 0 34.759524 0 38.6002634 0 39.985226 2.71026178 38.8886091 6.41466687ZM45.0547986 12.7570093 43.1164846 6.7878938 42.6507901 4.48173365 42.6021844 4.51895085 42.5962729 4.66781962C42.5443831 5.48529202 42.4878955 5.93189835 42.2317307 6.80617594L40.4891529 12.7570093 37.2897196 12.7570093 41.0251286 0 44.7487145 0 46.9674962 7.12219562 47.015445 7.08563136 47.7694892 3.55195674 48.8092557 0 52.0093458 0 48.27328 12.7570093 45.0547986 12.7570093ZM53.8340416 8.34775855C53.8385714 9.44975404 54.56852 9.84753825 55.6925632 9.84753825 56.1908438 9.84753825 57.2074655 9.77584827 57.4113075 9.08940088 57.6365045 8.32999466 56.7027138 8.18534586 56.1636648 8.07685926 53.9194611 7.62514896 51.2863397 6.99262766 52.1612426 4.04762879 52.5203929 2.8371467 53.4833038 1.6444285 54.7063561.939582795 55.9481747.235371517 57.3627737 0 58.6168876 0 60.8112633 0 62.6678436.885022282 62.8037383 3.03572159L59.3118919 3.99306827C59.2167656 3.07188379 58.6130049 2.74705841 57.6358573 2.74705841 57.1194575 2.74705841 56.3390337 2.89107279 56.1461927 3.54135798 55.9527045 4.19227759 56.8366671 4.3191625 57.2838254 4.42701468 58.4123984 4.6623862 59.6250968 4.86096109 60.5653586 5.42115799 61.6072179 6.07144318 61.9094218 7.22736475 61.5069147 8.58249565 60.6216578 11.5642911 57.2443512 12.7570093 54.6261135 12.7570093 51.9709901 12.7570093 49.9332168 11.6721433 50.0516393 8.98027985L53.8340416 8.34775855ZM67.2716798 6.43243076C66.9181841 7.62514896 66.3672986 9.91986265 68.1321965 9.91986265 69.8958043 9.91986265 70.7040708 7.62514896 71.0569213 6.43243076 71.4155775 5.22194867 71.9484012 2.80035007 70.2389789 2.80035007 68.5302016 2.80035007 67.6296909 5.22194867 67.2716798 6.43243076ZM75.1969487 6.41466687C74.1538785 9.93762654 71.1143321 12.7570093 67.2923218 12.7570093 63.4696665 12.7570093 62.0982583 9.93762654 63.1413284 6.41466687 64.237939 2.71026178 67.2271703 0 71.0678874 0 74.9092497 0 76.2935592 2.71026178 75.1969487 6.41466687ZM82.3445183 12.7570093 80.4062043 6.7878938 79.9405097 4.48173365 79.8925609 4.51895085 79.8859926 4.66781962C79.8341028 5.48529202 79.7776151 5.93189835 79.5214503 6.80617594L77.7788725 12.7570093 74.5794393 12.7570093 78.3148482 0 82.0384341 0 84.2572158 7.12219562 84.3051646 7.08563136 85.0592088 3.55195674 86.0989753 0 89.2990654 0 85.5629997 12.7570093 82.3445183 12.7570093Z"/><polygon fill="url(#b)" points="43.356 15.701 88.318 15.701 87.324 19.626 41.215 19.626"/><path fill="#231F20" d="M92.8769886 14.3263597 91.8627191 10.6258282 90.8478136 14.3263597 92.8769886 14.3263597ZM93.5294278 17.1156295 90.2138157 17.1156295 89.4532725 19.6261682 86.3551402 19.6261682 90.2138157 6.86915888 94.235919 6.86915888 98.1308411 19.6261682 94.235919 19.6261682 93.5294278 17.1156295ZM104.358293 16.6880677C104.853973 16.6880677 105.172624 16.7252753 105.632277 16.4648216 105.968321 16.2605058 106.234174 15.9811219 106.429216 15.6279754 106.853463 14.883822 106.995086 14.0286983 106.995086 13.1735746 106.995086 12.3177981 106.76526 11.2022207 106.251566 10.495275 105.667683 9.73284409 105.101813 9.77005176 104.252076 9.77005176L103.827828 9.77005176 103.827828 16.6880677 104.358293 16.6880677ZM100.093458 6.86915888 104.570727 6.86915888C106.322999 6.86915888 107.720593 7.11068236 109.029983 8.43122833 110.303967 9.69563641 110.88785 11.4437442 110.88785 13.2662674 110.88785 14.9399599 110.321359 16.6880677 109.207011 17.8963379 108.003838 19.2168838 106.499406 19.6261682 104.818567 19.6261682L100.093458 19.6261682 100.093458 6.86915888Z"/><polygon fill="#231F20" points="117.817 19.626 113.916 19.626 109.907 6.869 113.916 6.869 115.876 13.768 116.239 15.033 116.584 13.824 118.543 6.869 121.682 6.869"/><polygon fill="#231F20" points="132.477 19.626 122.664 19.626 122.664 6.869 132.477 6.869 132.477 9.807 126.589 9.807 126.589 11.667 131.353 11.667 131.353 14.512 126.589 14.512 126.589 16.576 132.477 16.576"/><path fill="#231F20" d="M138.564603,12.0201368 C139.375017,12.0201368 140.343063,11.8902363 140.343063,10.7929364 C140.343063,10.3653745 140.13165,9.95609012 139.761988,9.75112154 C139.444869,9.5840134 139.05728,9.5840134 138.705544,9.5840134 L137.208349,9.5840134 L137.208349,12.0201368 L138.564603,12.0201368 Z M140.13165,19.6261682 L138.371117,14.7539215 L137.208349,14.7539215 L137.208349,19.6261682 L133.457944,19.6261682 L133.457944,6.86915888 L139.603738,6.86915888 C140.660181,6.86915888 141.822331,7.01798957 142.720524,7.65051999 C143.724424,8.31960532 144.200411,9.45411293 144.200411,10.6995908 C144.200411,12.3732833 143.495703,13.3778904 142.068979,14.065906 L144.252336,19.6261682 L140.13165,19.6261682 Z"/><polygon fill="#231F20" points="150.517 19.626 146.875 19.626 146.875 9.938 144.252 9.938 144.252 6.869 153.084 6.869 153.084 9.938 150.517 9.938"/><rect width="3.925" height="12.757" x="155.047" y="6.869" fill="#231F20"/><path fill="#231F20" d="M163.375808,15.2177944 C163.691877,16.320205 164.498992,16.7172758 165.569189,16.7172758 C166.0436,16.7172758 166.99119,16.6449658 166.99119,15.9586549 C166.99119,15.1993997 166.060852,15.0547797 165.517435,14.9463147 C163.252584,14.4946942 160.567541,13.8622987 160.567541,10.9166169 C160.567541,9.70637561 161.146692,8.51326032 162.111533,7.8091891 C163.094858,7.10384929 164.375768,6.86915888 165.569189,6.86915888 C167.658446,6.86915888 169.67685,7.75463944 170.413727,9.904911 L167.360245,10.8627016 C167.008442,9.94106601 166.341802,9.61567093 165.412079,9.61567093 C164.920417,9.61567093 164.217426,9.76029097 164.217426,10.4110811 C164.217426,11.0618713 165.095394,11.1880967 165.551938,11.2965617 C166.692373,11.5312521 167.904278,11.7297875 168.957224,12.2905073 C170.133394,12.9406631 170.747664,14.0969891 170.747664,15.4524848 C170.747664,18.4343215 167.869159,19.6261682 165.375728,19.6261682 C162.849027,19.6261682 160.602044,18.5421523 159.953271,15.8501899 L163.375808,15.2177944 Z"/><rect width="3.925" height="12.757" x="171.729" y="6.869" fill="#231F20"/><path fill="#231F20" d="M184.266856 19.6261682 180.644196 13.6566216 179.522281 11.3510514 179.486132 11.3882591 179.522281 11.536437C179.706255 12.3550058 179.779844 12.8014979 179.779844 13.6755518L179.779844 19.6261682 176.635514 19.6261682 176.635514 6.86915888 180.294969 6.86915888 184.524419 13.9914906 184.561214 13.9542829 184.284931 10.4208596 184.284931 6.86915888 187.429907 6.86915888 187.429907 19.6261682 184.266856 19.6261682ZM200.186916 19.4460275 198.243289 19.4460275 197.715317 18.1450815C196.903154 19.1929424 195.54447 19.6261682 194.204998 19.6261682 190.429698 19.6261682 188.411215 16.8441355 188.411215 13.4468332 188.411215 11.8204922 188.845119 10.1218411 189.920937 8.8386554 191.147794 7.35693435 192.713824 6.86915888 194.619691 6.86915888 197.620587 6.86915888 199.621184 8.33311958 200.186916 11.169702L196.33676 11.5496467C196.186384 10.5557012 195.752479 9.61567093 194.544172 9.61567093 192.713824 9.61567093 192.600545 11.9651122 192.600545 13.2299032 192.600545 13.9523691 192.638305 14.8562443 192.940382 15.5064001 193.261007 16.2295003 193.88371 16.6995154 194.713759 16.6995154 195.733268 16.6995154 196.488461 16.1026406 196.488461 15.1270897L194.355374 15.1270897 194.355374 12.506803 200.186916 12.506803 200.186916 19.4460275ZM203.130841 15.7009346 203.130841 15.8141625C202.889434 15.8319237 202.806902 15.8733666 202.806902 16.3469996L202.806902 19.0444877C202.806902 19.435975 202.909242 19.5129403 203.130841 19.5129403L203.130841 19.6261682 202.149533 19.6261682 202.149533 19.5129403C202.390114 19.5010995 202.469758 19.435975 202.469758 19.0444877L202.469758 16.3469996C202.469758 15.9088891 202.423952 15.8371041 202.149533 15.8141625L202.149533 15.7009346 203.130841 15.7009346ZM204.380064 18.197068C204.380064 17.9068818 204.30016 17.9111414 204.225478 17.9111414 204.187354 17.9111414 204.149752 17.915401 204.11215 17.9281799L204.11215 17.8557665C204.2213 17.8216895 204.4255 17.7663146 204.689236 17.6635514L204.719004 17.6726031 204.719004 18.0091125C204.907015 17.8302088 205.070479 17.6635514 205.329515 17.6635514 205.589074 17.6635514 205.818864 17.8472472 205.818864 18.3078179L205.818864 19.2848667C205.818864 19.4765493 205.898768 19.5494952 206.074766 19.562274L206.074766 19.6261682 205.204175 19.6261682 205.204175 19.562274C205.380173 19.5532223 205.467911 19.4722897 205.467911 19.2039341L205.467911 18.3078179C205.467911 18.0091125 205.355105 17.8983626 205.154039 17.8983626 204.982741 17.8983626 204.848523 18.0304106 204.731016 18.141693L204.731016 19.3445013C204.731016 19.5191454 204.844345 19.5494952 205.007809 19.562274L205.007809 19.6261682 204.120506 19.6261682 204.120506 19.562274C204.250546 19.5494952 204.380064 19.5447031 204.380064 19.2720879L204.380064 18.197068ZM209.018692 18.9705729C208.74971 19.4422055 208.414907 19.6261682 208.004156 19.6261682 207.598468 19.6261682 207.056075 19.3546538 207.056075 18.6948893 207.056075 17.972588 207.695302 17.6635514 208.181367 17.6635514 208.414907 17.6635514 208.62313 17.7391168 208.719331 17.7891464 208.8611 17.8600215 208.947174 17.9981239 208.947174 18.0815064 208.947174 18.1815655 208.8611 18.2691172 208.703508 18.2691172 208.536423 18.2691172 208.475665 18.1148595 208.450349 18.0314769 208.399717 17.8683598 208.384528 17.7849772 208.116179 17.7849772 207.877576 17.7849772 207.446573 17.9350658 207.446573 18.5239551 207.446573 19.0122642 207.796565 19.3254699 208.222506 19.3254699 208.587055 19.3254699 208.775026 19.1456763 208.947174 18.9330508L209.018692 18.9705729ZM209.946028 19.1477804C209.946028 19.3842757 209.740935 19.5717056 209.504439 19.5717056 209.293458 19.5717056 209.072664 19.3999766 209.072664 19.1556308 209.072664 18.9122664 209.254206 18.6993224 209.504439 18.6993224 209.733084 18.6993224 209.946028 18.8965654 209.946028 19.1477804Z"/></g></svg>