<svg xmlns="http://www.w3.org/2000/svg" width="210" height="47" viewBox="0 0 210 47"><g fill="none" fill-rule="evenodd"><path fill="#29597B" d="M47.8613105,14.8126196 L25.0208155,14.3849185 C25.0208155,14.3849185 46.7472436,-0.669207423 87.4086904,0.0231714259 C115.329276,0.498436733 135.55451,16.6248274 158.447562,19.7870297 C181.340615,22.9497339 204.757993,25.9353589 210,40.1657083 L189.379025,40.1657083 C189.379025,40.1657083 196.718334,37.530226 191.126777,34.2810528 C185.533971,31.0306246 142.429417,25.0418049 87.206076,23.2848167 C31.9831098,21.5290835 0,28.4064373 0,28.4064373 C0,28.4064373 38.9139446,14.5166926 90.4670064,17.5033215 C142.019943,20.4898249 143.418145,21.1924947 143.418145,21.1924947 C143.418145,21.1924947 109.725234,6.18229355 86.4168412,5.30392495 C67.7716996,4.60125517 47.7390928,8.98280724 41.5351979,11.8814613 C41.5351979,11.8814613 43.7764399,13.8244392 47.8613105,14.8126196"/><g fill="#234157" fill-rule="nonzero" transform="translate(34.184 36.944)"><path d="M2.22035672,7.55700357 L3.20718193,7.55700357 C4.05550535,7.55700357 4.72204518,7.29731272 5.20680143,6.77793103 C5.69155767,6.25854935 5.93393579,5.56171225 5.93393579,4.68741974 C5.93393579,3.81312723 5.69155767,3.11629013 5.20680143,2.59690844 C4.72204518,2.07752675 4.05550535,1.81783591 3.20718193,1.81783591 L2.22035672,1.81783591 L2.22035672,7.55700357 Z M3.20718193,0.129845422 C4.66145065,0.129845422 5.85602854,0.551843044 6.79091558,1.39583829 C7.72580262,2.23983353 8.19324614,3.33486326 8.19324614,4.68092747 C8.19324614,6.02699168 7.72580262,7.12418549 6.79091558,7.97250892 C5.85602854,8.82083234 4.66145065,9.24499405 3.20718193,9.24499405 L0,9.24499405 L0,0.129845422 L3.20718193,0.129845422 Z"/><polygon points="9.596 9.245 9.596 .13 11.816 .13 11.816 9.245"/><path d="M14.5816409,8.01146254 C13.6813793,7.12851367 13.2312485,6.01184304 13.2312485,4.66145065 C13.2312485,3.31105826 13.6835434,2.19655172 14.5881332,1.31793103 C15.4927229,0.439310345 16.5985731,0 17.9056837,0 C18.918478,0 19.8187396,0.268347206 20.6064685,0.805041617 C21.3941974,1.34173603 21.9438763,2.08618312 22.2555054,3.03838288 L19.6066587,3.03838288 C19.2604043,2.37184304 18.7063971,2.03857313 17.9446373,2.03857313 C17.1828775,2.03857313 16.5834245,2.27662307 16.1462782,2.75272295 C15.709132,3.22882283 15.4905589,3.8650654 15.4905589,4.66145065 C15.4905589,5.45783591 15.709132,6.09407848 16.1462782,6.57017836 C16.5834245,7.04627824 17.169893,7.28432818 17.9056837,7.28432818 C18.4337218,7.28432818 18.8643757,7.15231867 19.1976457,6.88829964 C19.5309156,6.62428062 19.7538169,6.27153389 19.8663496,5.83005945 L17.2954102,5.83005945 L17.2954102,4.14206897 L22.2555054,4.14206897 L22.2555054,5.83005945 C22.0910345,6.66107015 21.6365755,7.43581451 20.8921284,8.15429251 C20.5372176,8.50054697 20.0979073,8.78187872 19.5741974,8.99828775 C19.0504875,9.21469679 18.4943163,9.32290131 17.9056837,9.32290131 C16.5985731,9.32290131 15.4905589,8.88575505 14.5816409,8.01146254 Z"/><polygon points="23.684 9.245 23.684 .13 25.904 .13 25.904 9.245"/><polygon points="27.229 1.818 27.229 .13 34.422 .13 34.422 1.818 31.929 1.818 31.929 9.245 29.709 9.245 29.709 1.818"/><path d="M41.5375505,9.24499405 L41.0311534,7.71281807 L37.7590488,7.71281807 L37.2526516,9.24499405 L34.8894649,9.24499405 L38.0576932,0.103876338 L40.758478,0.103876338 L43.9137218,9.24499405 L41.5375505,9.24499405 Z M38.3173841,6.02482759 L40.4728181,6.02482759 L39.3951011,2.77869203 L38.3173841,6.02482759 Z"/><polygon points="45.004 .13 47.225 .13 47.225 7.557 49.99 7.557 49.99 9.245 45.004 9.245"/><path d="M60.9104875 9.24499405 60.4040904 7.71281807 57.1319857 7.71281807 56.6255886 9.24499405 54.2624019 9.24499405 57.4306302.103876338 60.131415.103876338 63.2866587 9.24499405 60.9104875 9.24499405ZM57.690321 6.02482759 59.8457551 6.02482759 58.768038 2.77869203 57.690321 6.02482759ZM64.3384067 5.57036861 64.3384067.129845422 66.5587634.129845422 66.5587634 5.57036861C66.5587634 6.11571938 66.692937 6.53555291 66.9612842 6.8298692 67.2296314 7.12418549 67.6234958 7.27134364 68.1428775 7.27134364 68.6622592 7.27134364 69.0604518 7.12418549 69.3374554 6.8298692 69.614459 6.53555291 69.7529608 6.11571938 69.7529608 5.57036861L69.7529608.129845422 71.9733175.129845422 71.9733175 5.57036861C71.9733175 6.37541023 71.7850416 7.07008323 71.4084899 7.65438763 71.0319382 8.23869203 70.5558383 8.66501784 69.9801902 8.93336504 69.4045422 9.20171225 68.7791201 9.33588585 68.1039239 9.33588585 67.0478478 9.33588585 66.1562426 9.00694411 65.4291082 8.34906064 64.7019738 7.69117717 64.3384067 6.76494649 64.3384067 5.57036861Z"/><polygon points="73.246 1.818 73.246 .13 80.439 .13 80.439 1.818 77.946 1.818 77.946 9.245 75.726 9.245 75.726 1.818"/><path d="M87.6456599,6.57017836 C88.0871344,6.09407848 88.3078716,5.45783591 88.3078716,4.66145065 C88.3078716,3.8650654 88.0892985,3.22882283 87.6521522,2.75272295 C87.2150059,2.27662307 86.6307015,2.03857313 85.899239,2.03857313 C85.1677765,2.03857313 84.5834721,2.27662307 84.1463258,2.75272295 C83.7091795,3.22882283 83.4906064,3.8650654 83.4906064,4.66145065 C83.4906064,5.45783591 83.7091795,6.09407848 84.1463258,6.57017836 C84.5834721,7.04627824 85.1677765,7.28432818 85.899239,7.28432818 C86.6307015,7.28432818 87.2128419,7.04627824 87.6456599,6.57017836 Z M82.5816885,8.01146254 C81.6814269,7.12851367 81.2312961,6.01184304 81.2312961,4.66145065 C81.2312961,3.31105826 81.683591,2.19655172 82.5881807,1.31793103 C83.4927705,0.439310345 84.6007848,0 85.9122235,0 C87.2236623,0 88.3273484,0.439310345 89.2232818,1.31793103 C90.1192152,2.19655172 90.5671819,3.31105826 90.5671819,4.66145065 C90.5671819,6.01184304 90.1170511,7.12851367 89.2167895,8.01146254 C88.3165279,8.89441141 87.2128419,9.33588585 85.9057313,9.33588585 C84.5986207,9.33588585 83.4906064,8.89441141 82.5816885,8.01146254 Z"/><polygon points="102.318 .13 102.318 9.245 100.098 9.245 100.098 4.103 97.981 9.245 96.332 9.245 94.216 4.103 94.216 9.245 91.995 9.245 91.995 .13 94.54 .13 97.163 6.414 99.773 .13"/><path d="M110.147872,6.57017836 C110.589346,6.09407848 110.810083,5.45783591 110.810083,4.66145065 C110.810083,3.8650654 110.59151,3.22882283 110.154364,2.75272295 C109.717218,2.27662307 109.132913,2.03857313 108.401451,2.03857313 C107.669988,2.03857313 107.085684,2.27662307 106.648537,2.75272295 C106.211391,3.22882283 105.992818,3.8650654 105.992818,4.66145065 C105.992818,5.45783591 106.211391,6.09407848 106.648537,6.57017836 C107.085684,7.04627824 107.669988,7.28432818 108.401451,7.28432818 C109.132913,7.28432818 109.715054,7.04627824 110.147872,6.57017836 Z M105.0839,8.01146254 C104.183639,7.12851367 103.733508,6.01184304 103.733508,4.66145065 C103.733508,3.31105826 104.185803,2.19655172 105.090392,1.31793103 C105.994982,0.439310345 107.102996,0 108.414435,0 C109.725874,0 110.82956,0.439310345 111.725493,1.31793103 C112.621427,2.19655172 113.069394,3.31105826 113.069394,4.66145065 C113.069394,6.01184304 112.619263,7.12851367 111.719001,8.01146254 C110.81874,8.89441141 109.715054,9.33588585 108.407943,9.33588585 C107.100832,9.33588585 105.992818,8.89441141 105.0839,8.01146254 Z"/><polygon points="113.874 1.818 113.874 .13 121.068 .13 121.068 1.818 118.575 1.818 118.575 9.245 116.354 9.245 116.354 1.818"/><polygon points="122.392 9.245 122.392 .13 124.613 .13 124.613 9.245"/><polygon points="128.911 9.245 125.677 .13 128.041 .13 130.3 7.077 132.559 .13 134.922 .13 131.689 9.245"/><polygon points="141.506 .104 141.506 1.792 138.207 1.792 138.207 3.753 141.116 3.753 141.116 5.441 138.207 5.441 138.207 7.557 141.506 7.557 141.506 9.245 135.987 9.245 135.987 .104"/></g></g></svg>