<svg xmlns="http://www.w3.org/2000/svg" width="251" height="36" viewBox="0 0 251 36">
  <g fill="none" fill-rule="evenodd">
    <text fill="#FFF" font-family="HelveticaNeue-Medium, Helvetica Neue" font-size="24" font-weight="400">
      <tspan x="44" y="28">Matchback Report</tspan>
    </text>
    <path fill="#7C4199" d="M15.1353886,35.7715053 L15.2202591,35.697361 L16.7619171,34.4588263 C20.0056477,31.8521675 22.7415544,28.7721516 24.2576114,25.1421629 L24.2576114,25.1414634 C22.5867358,26.6077468 20.3973575,27.4964048 17.9990674,27.4964048 C13.1250777,27.4964048 9.10585492,23.8212767 8.56445596,19.0898966 C7.7026943,11.5470985 11.8123834,4.15310184 17.9990674,0 C8.05989637,0 0,8.06050189 0,17.9999301 C0,26.9638722 6.55694301,34.3991378 15.1353886,35.7715053 Z"/>
    <path fill="#A58AB3" d="M36,17.9999301 C36,27.9393582 27.9401036,36 17.9990674,36 C22.5461658,32.3469752 25.4625389,28.3695812 26.7514508,24.067678 C27.6034663,21.219934 27.9685959,17.5966601 26.9197927,14.7347868 C25.5893782,11.0987359 22.0966788,8.50345527 17.9990674,8.50345527 C15.5284974,8.50345527 13.2757461,9.44867741 11.5862176,10.997079 C12.8947617,7.25125743 15.3764767,4.14232995 19.1019171,1.64129175 L20.7433679,0.539247599 L21.1299482,0.274007168 C29.5774041,1.75572565 36,9.12822519 36,17.9999301 L36,17.9999301 Z"/>
  </g>
</svg>
