<svg xmlns="http://www.w3.org/2000/svg" width="432" height="72" viewBox="0 0 432 72"><g fill="none" fill-rule="evenodd"><g font-family="HelveticaNeue-Medium, Helvetica Neue" font-weight="400" transform="translate(88)"><text fill="#212529" font-size="40">
                        <tspan x="0" y="63">Matchback Report</tspan>
                    </text><text fill="#6C757D" font-size="20">
                        <tspan x="0" y="20">Aronson Advertising</tspan>
                    </text></g><path fill="#7C4199" d="M30.2707772,71.5430105 L30.4405181,71.3947221 L33.5238342,68.9176525 C40.0112953,63.7043351 45.4831088,57.5443032 48.5152228,50.2843257 L48.5152228,50.2829268 C45.1734715,53.2154936 40.794715,54.9928097 35.9981347,54.9928097 C26.2501554,54.9928097 18.2117098,47.6425534 17.1289119,38.1797932 C15.4053886,23.0941971 23.6247668,8.30620368 35.9981347,0 C16.1197927,0 0,16.1210038 0,35.9998601 C0,53.9277444 13.113886,68.7982757 30.2707772,71.5430105 Z"/><path fill="#A58AB3" d="M72,35.9998601 C72,55.8787164 55.8802073,72 35.9981347,72 C45.0923316,64.6939505 50.9250777,56.7391624 53.5029016,48.1353559 C55.2069326,42.4398679 55.9371917,35.1933203 53.8395855,29.4695735 C51.1787565,22.1974718 44.1933575,17.0069105 35.9981347,17.0069105 C31.0569948,17.0069105 26.5514922,18.8973548 23.1724352,21.9941581 C25.7895233,14.5025149 30.7529534,8.28465989 38.2038342,3.28258349 L41.4867358,1.0784952 L42.2598964,0.548014337 C59.1548083,3.51145129 72,18.2564504 72,35.9998601 L72,35.9998601 Z"/></g></svg>